# xmcd
#
# Track frame offsets:
#	187
#	20217
#	41302
#	61872
#	81002
#	97059
#	116142
#	136079
#	154962
#	170427
#
# Disc length: 2516 seconds
#
# Revision: 2
# Processed by: cddbd v1.5.2PL0 Copyright (c) Steve Scherf et al.
# Submitted via: EZCDAudioConverter 6.0.3.1
#
DISCID=7f09d20a
DTITLE=Reba McEntire - Starting Over
DYEAR=1995
DGENRE=Country
TTITLE0=Talking In Your Sleep
TTITLE1=Please Come To Boston
TTITLE2=On My Own
TTITLE3=I Won't Mention It Again
TTITLE4=You're No Good
TTITLE5=Ring On Her Finger, Time On Her Hands
TTITLE6=Five Hundred Miles Away From Home
TTITLE7=Starting Over
TTITLE8=You Keep Me Hangin' On
TTITLE9=By The Time I Get To Phoenix
EXTD=
EXTT0=
EXTT1=
EXTT2=
EXTT3=
EXTT4=
EXTT5=
EXTT6=
EXTT7=
EXTT8=
EXTT9=
PLAYORDER=
